<svg width="24" height="24" viewBox="0 0 24 24" fill="none" xmlns="http://www.w3.org/2000/svg">
<path d="M22.8334 17.33V20.58C22.8346 20.8817 22.7728 21.1804 22.6519 21.4568C22.531 21.7332 22.3538 21.9814 22.1314 22.1854C21.9091 22.3893 21.6467 22.5446 21.3608 22.6413C21.075 22.7379 20.7722 22.7738 20.4717 22.7467C17.1381 22.3844 13.9359 21.2453 11.1225 19.4208C8.50501 17.7576 6.28581 15.5384 4.62253 12.9208C2.79167 10.0946 1.65229 6.87691 1.2967 3.52834C1.26962 3.22876 1.30523 2.92683 1.40124 2.64176C1.49725 2.3567 1.65156 2.09475 1.85436 1.87259C2.05715 1.65044 2.30398 1.47294 2.57914 1.3514C2.85429 1.22987 3.15173 1.16695 3.45253 1.16667H6.70253C7.22828 1.1615 7.73797 1.34767 8.1366 1.6905C8.53524 2.03332 8.79561 2.5094 8.8692 3.03C9.00637 4.07008 9.26077 5.09129 9.62753 6.07417C9.77329 6.46192 9.80483 6.88333 9.71843 7.28846C9.63203 7.69359 9.4313 8.06546 9.14003 8.36L7.7642 9.73584C9.30638 12.448 11.552 14.6937 14.2642 16.2358L15.64 14.86C15.9346 14.5687 16.3064 14.368 16.7116 14.2816C17.1167 14.1952 17.5381 14.2267 17.9259 14.3725C18.9087 14.7393 19.93 14.9937 20.97 15.1308C21.4963 15.2051 21.9769 15.4701 22.3204 15.8756C22.664 16.2811 22.8465 16.7987 22.8334 17.33Z" stroke="#6487A1" stroke-width="2" stroke-linecap="round" stroke-linejoin="round"/>
</svg>
